<svg xmlns="http://www.w3.org/2000/svg" version="1" width="1024" height="290" viewBox="0 0 74.34375 21.03125">
 <path d="M7.063 0C3.045 0 .78 2.658.78 5.656c0 3.554 3.888 4.975 5.094 5.594 1.669.865 4.187 1.847 4.188 4.969 0 2.565-1.526 3.968-3.875 3.968-3.4 0-5.133-3.672-5.72-5.093L0 15.219c.308 1.637.658 3.82.938 4.625.338.154.885.41 1.656.656.741.248 1.792.469 2.906.531 3.894-.062 6.781-2.757 6.781-6.218 0-3.68-2.964-5.012-5.25-6.032-2.35-1.08-4.125-2.182-4.125-4.469C2.906 2.365 3.995.75 6.375.75c2.705 0 3.702 2.088 4.375 3.906 0 0 .043.101.063.157.022.06.04.127.062.187.023.067.02.114.031.156 1.407.268 1.545.456 2.563 2.25 1.502 2.665 2.387 4.32 2.969 5.313.532.899.625 1.207.625 1.594v2.718c0 2.619-.177 2.92-2.407 3.188v.343h6.907v-.343c-2.327-.268-2.532-.569-2.532-3.188v-3c0-.387.04-.652.5-1.5 1.115-2.085 1.979-3.742 2.875-5.125.966-1.48 1.218-1.918 2.5-2.187 1.563.262 1.727.656 1.75 3.093v8.72c0 2.618-.214 2.92-2.25 3.187v.343h5.407c1.866 0 3.413-.258 4.625-.937 1.405-.8 2.28-1.998 2.28-3.719 0-2.447-1.988-3.747-4.218-4.062v-.063c1.188-.287 3.187-1.337 3.188-3.469 0-1.213-.427-2.075-1.25-2.656-.8-.557-1.94-.844-3.563-.843H20.031v.343l1 .157c.897.17 1.106.492.719 1.437-.606 1.502-2.166 4.424-3.062 6.094-1.115-1.842-3.25-5.749-3.47-6.281-.362-.898-.27-1.067.313-1.188l1.125-.219v-.343h-5.343c-.241-1.816-.412-3.036-.532-4.094C9.854.502 8.825 0 7.063 0zm36.5 4.438l-.313.093-4.969 12.782c-.922 2.35-1.206 2.517-2.781 2.906v.343h5.188v-.343l-.532-.125c-1.308-.291-1.518-.577-1.156-2.032.244-.968.866-2.872 1.156-3.625h5.188c.705 1.87 1.392 3.763 1.562 4.344.22.754.154 1.001-.718 1.219l-.813.219v.343h5.781v-.343c-1.501-.366-1.788-.544-2.562-2.532-.97-2.472-2.063-5.572-3.25-8.625l-1.781-4.624zm12.312 0c-3.152 0-4.906 2.086-4.906 4.437 0 2.788 3.054 3.89 4 4.375 1.307.679 3.25 1.459 3.25 3.906 0 2.012-1.189 3.094-3.031 3.094-2.667 0-4.01-2.885-4.47-4l-.374.125c.242 1.285.5 2.994.719 3.625.265.12.674.308 1.28.5.585.195 1.408.359 2.282.406 3.053-.047 5.344-2.127 5.344-4.843 0-2.884-2.333-3.953-4.125-4.75-1.843-.85-3.219-1.707-3.219-3.5 0-1.528.853-2.782 2.719-2.782 2.252 0 2.967 1.866 3.5 3.344l.375-.094c-.195-1.478-.341-2.433-.438-3.281-.728-.169-1.526-.563-2.906-.563zm4.156.375v.343c1.938.268 2.157.538 2.157 3.157v8.718c0 2.619-.194 2.92-2.375 3.188v.343h11.343c.197-.654.752-3.132.875-3.812l-.375-.063c-.558 1.114-.995 1.94-1.406 2.375-.534.583-1.681.97-3.062.97-1.14 0-2.023-.02-2.532-.407-.411-.315-.531-.899-.531-2.281v-4.657h2.438c1.04 0 1.567.052 1.906.344.341.265.507.798.75 1.719h.344V9.937h-.344c-.485 1.793-.574 2.032-2.656 2.032h-2.438V6.063c0-.68.04-.72.719-.72h1.594c1.842 0 2.574.432 2.937.845.34.388.756 1.007 1.094 2.218l.344-.062a120.693 120.693 0 0 1-.25-3.531H60.03zm13.157.062c-.63 0-1.126.495-1.125 1.125 0 .62.495 1.125 1.125 1.125S74.344 6.62 74.344 6c0-.63-.526-1.125-1.156-1.125zm0 .125c.52 0 .937.455.937 1 0 .545-.416 1-.937 1-.522 0-.938-.455-.938-1 0-.545.416-1 .938-1zm-43.094.281c2.86 0 3.468 1.859 3.469 3.313 0 2.108-1.174 3.156-3.5 3.156H28.53V6.062c0-.483.073-.583.219-.656.194-.098.544-.125 1.344-.125zm42.562.094v.063c.159.02.157.03.157.187v.75c0 .151.002.164-.157.188v.062h.563v-.063c-.164-.023-.188-.036-.188-.187v-.313h.094c.04 0 .063.045.094.094.019.04.127.219.187.313.083.126.151.151.313.156l.094.031.03-.062h-.03c-.024-.022-.056-.044-.094-.094-.04-.048-.093-.095-.156-.188-.06-.088-.122-.22-.157-.28.154-.048.25-.162.25-.313 0-.272-.231-.344-.437-.344h-.563zm.5.063c.104 0 .25.055.25.28 0 .05.009.182-.093.25a.37.37 0 0 1-.157.032h-.125v-.469c0-.093.004-.093.125-.093zM42.688 7.53h.062l2.313 6.188h-4.688l2.313-6.188zM28.53 12.25h1.407c2.545 0 4.468 1.277 4.468 3.969 0 2.666-1.721 3.812-3.781 3.812-1.769 0-2.094-.459-2.094-2.375V12.25z" fill="#231f20"/>
</svg>
